<?xml version="1.0" encoding="utf-8"?>
<!-- Generator: Adobe Illustrator 16.0.4, SVG Export Plug-In . SVG Version: 6.00 Build 0)  -->
<!DOCTYPE svg PUBLIC "-//W3C//DTD SVG 1.1//EN" "http://www.w3.org/Graphics/SVG/1.1/DTD/svg11.dtd">
<svg version="1.1" id="Layer_1" xmlns="http://www.w3.org/2000/svg" xmlns:xlink="http://www.w3.org/1999/xlink" x="0px" y="0px"
	 width="376.098px" height="143.602px" viewBox="0 0 376.098 143.602" enable-background="new 0 0 376.098 143.602"
	 xml:space="preserve">
<g>
	<path fill="#333333" d="M51,143.601c-14.668,0-26.834-4.565-36.5-13.701C4.832,120.769,0,108.935,0,94.399V0h21.6v93.398
		c0,9.47,2.631,16.97,7.9,22.5c5.266,5.535,12.431,8.302,21.5,8.302c8.931,0,16.1-2.767,21.5-8.302c5.399-5.53,8.1-13.03,8.1-22.5V0
		h21.6v94.398c0,14.535-4.834,26.369-14.5,35.5C78.031,139.034,65.8,143.601,51,143.601z"/>
	<path fill="#333333" d="M219.766,142.616l-29.912-60.244l-27.056,0.026V142.6h-21.6V0h55.198c13.332,0,24.03,3.834,32.103,11.5
		c8.063,7.668,12.101,17.7,12.101,30.101c0,9.733-2.636,17.899-7.899,24.5C227.43,72.701,220.6,77.134,212.2,79.4l32.8,63.2
		L219.766,142.616z M194.797,19.4h-32V64.2h32c7.201,0,13.031-1.976,17.5-5.926c4.467-3.949,6.701-9.408,6.701-16.375
		c0-6.962-2.201-12.452-6.604-16.473C207.999,21.409,202.129,19.4,194.797,19.4z"/>
	<path fill="#333333" d="M354.374,142.493l-31.181-54.726l-30.844,54.803l-24.757,0.025l44.006-73.2L270.396,0l24.867-0.038
		l27.918,50.939l28.15-50.939L376.198,0l-41.203,69.396l44.203,73.204L354.374,142.493z"/>
</g>
</svg>
