<svg xmlns="http://www.w3.org/2000/svg" xmlns:xlink="http://www.w3.org/1999/xlink" version="1.1" id="Layer_1" x="0px" y="0px" width="100px" height="100px" viewBox="0 0 100 100" enable-background="new 0 0 100 100" xml:space="preserve">
<g>
	<path d="M56.357,27.865l-3.593,3.592l5.233,5.232l3.592-3.592L56.357,27.865z M66.852,38.361l-3.591,3.591l5.232,5.232l3.592-3.592   L66.852,38.361z M63.429,0l10.937,10.936c-3.548,4.094-3.376,10.294,0.515,14.185c3.89,3.89,10.09,4.061,14.185,0.514L100,36.571   L82.532,54.04l-5.184-5.185l-3.593,3.592l5.184,5.184L36.571,100L25.538,88.966c2.823-4.062,2.425-9.687-1.195-13.306   c-3.624-3.623-9.247-4.021-13.309-1.197L0,63.429l42.369-42.368l5.134,5.134l3.591-3.592l-5.134-5.134L63.429,0z"/>
</g>
</svg>